<?xml version="1.0" standalone="no"?>
<!DOCTYPE svg PUBLIC "-//W3C//DTD SVG 20010904//EN"
 "http://www.w3.org/TR/2001/REC-SVG-20010904/DTD/svg10.dtd">
<svg version="1.0" xmlns="http://www.w3.org/2000/svg"
 width="107.000000pt" height="107.000000pt" viewBox="0 0 107.000000 107.000000"
 preserveAspectRatio="xMidYMid meet">
<metadata>
Created by potrace 1.11, written by Peter Selinger 2001-2013
</metadata>
<g transform="translate(0.000000,107.000000) scale(0.100000,-0.100000)"
fill="#000000" stroke="none">
<path d="M530 855 c-8 -2 -32 -6 -52 -10 -42 -6 -37 3 -89 -190 l-33 -119 -13
54 c-7 30 -15 62 -17 70 -45 172 -47 176 -121 185 -81 11 -121 0 -132 -33 -10
-32 -10 -467 1 -499 8 -25 73 -48 106 -38 27 9 31 31 31 155 0 73 4 110 11
110 6 0 9 -2 6 -5 -3 -3 3 -38 14 -78 11 -40 21 -83 24 -97 9 -47 38 -74 89
-84 66 -12 79 4 112 137 15 59 28 106 29 104 2 -1 4 -47 5 -102 1 -55 5 -108
10 -117 5 -9 26 -22 47 -28 48 -13 55 -13 76 3 14 11 19 32 23 98 5 80 7 86
39 117 l34 32 49 -77 c27 -43 54 -83 59 -89 5 -6 13 -20 16 -31 8 -26 41 -48
83 -57 71 -16 104 23 73 84 -10 19 -55 87 -99 150 l-81 115 77 76 c82 82 96
104 82 131 -9 16 -65 38 -99 38 -8 0 -63 -50 -122 -112 l-108 -113 -1 73 c-1
39 -3 77 -4 82 -1 6 -3 17 -4 25 0 8 -9 19 -19 24 -21 11 -81 21 -102 16z"/>
</g>
</svg>
